<svg width="1200" height="650" viewBox="0 0 1200 650" fill="none" xmlns="http://www.w3.org/2000/svg">
<g filter="url(#filter0_f_102_6)">
<ellipse cx="775" cy="625" rx="275" ry="275" transform="rotate(90 775 625)" fill="#FFD700"/>
</g>
<g filter="url(#filter1_d_102_6)">
<path d="M985 800C910.832 800 838.33 778.007 776.661 736.801C714.993 695.596 666.928 637.029 638.545 568.506C610.162 499.984 602.736 424.584 617.205 351.841C631.675 279.098 667.39 212.28 719.835 159.835C772.28 107.39 839.098 71.675 911.841 57.2056C984.584 42.7361 1059.98 50.1624 1128.51 78.5452C1197.03 106.928 1255.6 154.993 1296.8 216.661C1338.01 278.33 1360 350.832 1360 425L1303.75 425C1303.75 361.957 1285.06 300.33 1250.03 247.912C1215.01 195.494 1165.22 154.639 1106.98 130.513C1048.74 106.388 984.646 100.076 922.815 112.375C860.984 124.674 804.188 155.032 759.61 199.61C715.032 244.188 684.674 300.984 672.375 362.815C660.076 424.646 666.388 488.736 690.513 546.98C714.639 605.224 755.494 655.006 807.912 690.031C860.33 725.056 921.957 743.75 985 743.75L985 800Z" fill="#FFD700"/>
</g>
<path d="M609.289 527.939C603.954 529.369 598.458 526.205 597.162 520.836C579.417 447.308 582.871 370.178 607.228 298.424C632.658 223.51 679.731 157.819 742.495 109.659C805.26 61.498 880.896 33.0306 959.839 27.8564C1038.78 22.6822 1117.49 41.0335 1186 80.5898C1254.51 120.146 1309.76 179.131 1344.75 250.084C1379.74 321.038 1392.9 400.775 1382.58 479.21C1372.25 557.646 1338.9 631.258 1286.74 690.738C1236.77 747.709 1171.7 789.265 1099.15 810.661C1093.86 812.224 1088.37 809.046 1086.94 803.711C1085.51 798.376 1088.68 792.906 1093.98 791.336C1162.71 770.968 1224.34 731.548 1271.7 677.551C1321.25 621.045 1352.94 551.114 1362.75 476.6C1372.56 402.086 1360.05 326.336 1326.81 258.93C1293.57 191.524 1241.09 135.489 1176 97.9103C1110.91 60.3318 1036.14 42.8981 961.147 47.8135C886.151 52.7291 814.297 79.7731 754.671 125.526C695.045 171.278 650.325 233.685 626.167 304.853C603.081 372.861 599.762 445.952 616.487 515.658C617.776 521.028 614.624 526.51 609.289 527.939Z" fill="#FFD700" fill-opacity="0.75"/>
<path d="M626.99 220.662C621.908 217.728 620.156 211.221 623.216 206.214C665.126 137.641 725.668 82.2879 797.877 46.6785C873.265 9.50101 957.985 -4.48632 1041.32 6.48532C1124.66 17.457 1202.87 52.8948 1266.07 108.317C1329.27 163.74 1374.61 236.658 1396.37 317.851C1418.12 399.044 1415.31 484.865 1388.29 564.461C1361.28 644.057 1311.26 713.854 1244.57 765.025C1177.89 816.195 1097.52 846.442 1013.65 851.939C933.306 857.205 853.199 839.539 782.617 801.108C777.464 798.302 775.728 791.791 778.662 786.709C781.596 781.627 788.089 779.899 793.246 782.699C860.185 819.032 936.111 835.726 1012.26 830.735C1091.94 825.512 1168.28 796.778 1231.64 748.166C1294.99 699.554 1342.5 633.247 1368.17 557.631C1393.84 482.014 1396.51 400.484 1375.84 323.351C1355.17 246.218 1312.1 176.946 1252.06 124.294C1192.02 71.6425 1117.72 37.9766 1038.55 27.5535C959.378 17.1305 878.894 30.4184 807.275 65.737C738.836 99.4875 681.429 151.907 641.625 216.843C638.559 221.846 632.072 223.596 626.99 220.662Z" fill="#FFD700" fill-opacity="0.15"/>
<defs>
<filter id="filter0_f_102_6" x="0" y="-150" width="1550" height="1550" filterUnits="userSpaceOnUse" color-interpolation-filters="sRGB">
<feFlood flood-opacity="0" result="BackgroundImageFix"/>
<feBlend mode="normal" in="SourceGraphic" in2="BackgroundImageFix" result="shape"/>
<feGaussianBlur stdDeviation="250" result="effect1_foregroundBlur_102_6"/>
</filter>
<filter id="filter1_d_102_6" x="510" y="-50.0001" width="950" height="950" filterUnits="userSpaceOnUse" color-interpolation-filters="sRGB">
<feFlood flood-opacity="0" result="BackgroundImageFix"/>
<feColorMatrix in="SourceAlpha" type="matrix" values="0 0 0 0 0 0 0 0 0 0 0 0 0 0 0 0 0 0 127 0" result="hardAlpha"/>
<feOffset/>
<feGaussianBlur stdDeviation="50"/>
<feComposite in2="hardAlpha" operator="out"/>
<feColorMatrix type="matrix" values="0 0 0 0 0 0 0 0 0 0 0 0 0 0 0 0 0 0 0.5 0"/>
<feBlend mode="normal" in2="BackgroundImageFix" result="effect1_dropShadow_102_6"/>
<feBlend mode="normal" in="SourceGraphic" in2="effect1_dropShadow_102_6" result="shape"/>
</filter>
</defs>
</svg>
